<?xml version="1.0" encoding="UTF-8" standalone="no" ?>
<!DOCTYPE svg PUBLIC "-//W3C//DTD SVG 1.1//EN" "http://www.w3.org/Graphics/SVG/1.1/DTD/svg11.dtd">
<svg xmlns="http://www.w3.org/2000/svg" xmlns:xlink="http://www.w3.org/1999/xlink" version="1.1" width="512" height="512" viewBox="0 0 512 512" xml:space="preserve">
<desc>Created with Fabric.js 5.2.4</desc>
<defs>
</defs>
<g transform="matrix(1 0 0 1 256 256)" id="42a30a84-e45b-4000-87ab-87ea7c670422"  >
<rect style="stroke: none; stroke-width: 1; stroke-dasharray: none; stroke-linecap: butt; stroke-dashoffset: 0; stroke-linejoin: miter; stroke-miterlimit: 4; fill: rgb(255,255,255); fill-rule: nonzero; opacity: 1; visibility: hidden;" vector-effect="non-scaling-stroke"  x="-256" y="-256" rx="0" ry="0" width="512" height="512" />
</g>
<g transform="matrix(Infinity NaN NaN Infinity 0 0)" id="7030a670-4734-40f4-91e6-cdd4a7bda648"  >
</g>
<g transform="matrix(0.47 0 0 0.47 279.89 273.07)"  >
<g style="" vector-effect="non-scaling-stroke"   >
		<g transform="matrix(1 0 0 1 0 0)"  >
<rect style="stroke: none; stroke-width: 1; stroke-dasharray: none; stroke-linecap: butt; stroke-dashoffset: 0; stroke-linejoin: miter; stroke-miterlimit: 4; fill: rgb(234,234,234); fill-rule: nonzero; opacity: 1;" vector-effect="non-scaling-stroke"  x="-600" y="-600" rx="3" ry="3" width="1200" height="1200" />
</g>
		<g transform="matrix(1 0 0 1 0.71 -0.12)"  >
<path style="stroke: none; stroke-width: 1; stroke-dasharray: none; stroke-linecap: butt; stroke-dashoffset: 0; stroke-linejoin: miter; stroke-miterlimit: 4; fill: rgb(250,250,250); fill-rule: nonzero; opacity: 0.25;" vector-effect="non-scaling-stroke"  transform=" translate(-600.71, -599.88)" d="M 600.709 736.5 C 525.255 736.5 464.08799999999997 675.333 464.08799999999997 599.88 C 464.08799999999997 524.426 525.255 463.259 600.709 463.259 C 676.1619999999999 463.259 737.329 524.426 737.329 599.88 C 737.329 675.333 676.1619999999999 736.5 600.709 736.5 Z" stroke-linecap="round" />
</g>
		<g transform="matrix(1 0 0 1 0.71 -0.12)"  >
<path style="stroke: rgb(201,201,201); stroke-width: 2.418; stroke-dasharray: none; stroke-linecap: butt; stroke-dashoffset: 0; stroke-linejoin: miter; stroke-miterlimit: 4; fill: none; fill-rule: nonzero; opacity: 0.25;" vector-effect="non-scaling-stroke"  transform=" translate(-600.71, -599.88)" d="M 600.709 736.5 C 525.255 736.5 464.08799999999997 675.333 464.08799999999997 599.88 C 464.08799999999997 524.426 525.255 463.259 600.709 463.259 C 676.1619999999999 463.259 737.329 524.426 737.329 599.88 C 737.329 675.333 676.1619999999999 736.5 600.709 736.5 Z" stroke-linecap="round" />
</g>
		<g transform="matrix(0.71 -0.71 -0.71 -0.71 1.71 0.88)"  >
<linearGradient id="SVGID_a_3" gradientUnits="userSpaceOnUse" gradientTransform="matrix(1 0 0 1 0 0)"  x1="554.061" y1="0.083" x2="-0.48" y2="0.087">
<stop offset="0%" style="stop-color:rgb(201,201,201);stop-opacity: 0"/>
<stop offset="20.8%" style="stop-color:rgb(201,201,201);stop-opacity: 1"/>
<stop offset="79.2%" style="stop-color:rgb(201,201,201);stop-opacity: 1"/>
<stop offset="100%" style="stop-color:rgb(201,201,201);stop-opacity: 0"/>
</linearGradient>
<path style="stroke: url(#SVGID_a_3); stroke-width: 2.418; stroke-dasharray: none; stroke-linecap: butt; stroke-dashoffset: 0; stroke-linejoin: miter; stroke-miterlimit: 4; fill: none; fill-rule: nonzero; opacity: 0.5;" vector-effect="non-scaling-stroke"  transform=" translate(-276.79, 1.21)" d="M 0 -1.209 L 553.581 -1.209" stroke-linecap="round" />
</g>
		<g transform="matrix(1 0 0 1 0.71 -1.33)"  >
<linearGradient id="SVGID_b_4" gradientUnits="userSpaceOnUse" gradientTransform="matrix(1 0 0 1 0 0)"  x1="796.912" y1="599.963" x2="404.507" y2="599.965">
<stop offset="0%" style="stop-color:rgb(201,201,201);stop-opacity: 0"/>
<stop offset="20.8%" style="stop-color:rgb(201,201,201);stop-opacity: 1"/>
<stop offset="79.2%" style="stop-color:rgb(201,201,201);stop-opacity: 1"/>
<stop offset="100%" style="stop-color:rgb(201,201,201);stop-opacity: 0"/>
</linearGradient>
<path style="stroke: url(#SVGID_b_4); stroke-width: 2.418; stroke-dasharray: none; stroke-linecap: butt; stroke-dashoffset: 0; stroke-linejoin: miter; stroke-miterlimit: 4; fill: none; fill-rule: nonzero; opacity: 0.5;" vector-effect="non-scaling-stroke"  transform=" translate(-600.71, -598.67)" d="M 404.846 598.671 L 796.572 598.671" stroke-linecap="round" />
</g>
		<g transform="matrix(1 0 0 1 -0.5 -0.12)"  >
<linearGradient id="SVGID_c_5" gradientUnits="userSpaceOnUse" gradientTransform="matrix(1 0 0 1 0 0)"  x1="600.792" y1="403.677" x2="600.794" y2="796.082">
<stop offset="0%" style="stop-color:rgb(201,201,201);stop-opacity: 0"/>
<stop offset="20.8%" style="stop-color:rgb(201,201,201);stop-opacity: 1"/>
<stop offset="79.2%" style="stop-color:rgb(201,201,201);stop-opacity: 1"/>
<stop offset="100%" style="stop-color:rgb(201,201,201);stop-opacity: 0"/>
</linearGradient>
<path style="stroke: url(#SVGID_c_5); stroke-width: 2.418; stroke-dasharray: none; stroke-linecap: butt; stroke-dashoffset: 0; stroke-linejoin: miter; stroke-miterlimit: 4; fill: none; fill-rule: nonzero; opacity: 0.5;" vector-effect="non-scaling-stroke"  transform=" translate(-599.5, -599.88)" d="M 599.5 795.742 L 599.5 404.017" stroke-linecap="round" />
</g>
		<g transform="matrix(1 0 0 1 0 0.88)"  >
<linearGradient id="SVGID_d_6" gradientUnits="userSpaceOnUse" gradientTransform="matrix(1 0 0 1 0 0)"  x1="404.85" y1="403.903" x2="796.972" y2="796.02">
<stop offset="0%" style="stop-color:rgb(201,201,201);stop-opacity: 0"/>
<stop offset="20.8%" style="stop-color:rgb(201,201,201);stop-opacity: 1"/>
<stop offset="79.2%" style="stop-color:rgb(201,201,201);stop-opacity: 1"/>
<stop offset="100%" style="stop-color:rgb(201,201,201);stop-opacity: 0"/>
</linearGradient>
<path style="stroke: url(#SVGID_d_6); stroke-width: 2.418; stroke-dasharray: none; stroke-linecap: butt; stroke-dashoffset: 0; stroke-linejoin: miter; stroke-miterlimit: 4; fill: none; fill-rule: nonzero; opacity: 0.5;" vector-effect="non-scaling-stroke"  transform=" translate(-600, -600.88)" d="M 795.717 796.597 L 404.276 405.157" stroke-linecap="round" />
</g>
		<g transform="matrix(1 0 0 1 0.71 -0.12)"  >
<path style="stroke: none; stroke-width: 1; stroke-dasharray: none; stroke-linecap: butt; stroke-dashoffset: 0; stroke-linejoin: miter; stroke-miterlimit: 4; fill: rgb(255,255,255); fill-rule: nonzero; opacity: 0.5;" vector-effect="non-scaling-stroke"  transform=" translate(-600.71, -599.88)" d="M 600.709 656.704 C 569.3249999999999 656.704 543.8839999999999 631.2629999999999 543.8839999999999 599.88 C 543.8839999999999 568.496 569.3249999999999 543.055 600.709 543.055 C 632.092 543.055 657.5329999999999 568.496 657.5329999999999 599.88 C 657.5329999999999 631.263 632.0919999999999 656.704 600.709 656.704 Z" stroke-linecap="round" />
</g>
		<g transform="matrix(1 0 0 1 1.31 -0.12)" clip-path="url(#CLIPPATH_7)"  >
<clipPath id="CLIPPATH_7" >
	<path transform="matrix(1 0 0 1 -0.61 0) translate(-600.71, -599.88)" id="e" d="M 581.364 580.535 L 620.053 580.535 L 620.053 619.2239999999999 L 581.364 619.2239999999999 z" stroke-linecap="round" />
</clipPath>
<path style="stroke: none; stroke-width: 1; stroke-dasharray: none; stroke-linecap: butt; stroke-dashoffset: 0; stroke-linejoin: miter; stroke-miterlimit: 4; fill: rgb(102,102,102); fill-rule: evenodd; opacity: 0.5;" vector-effect="non-scaling-stroke"  transform=" translate(-601.31, -599.88)" d="M 616.426 586.58 L 584.9920000000001 586.58 L 584.9920000000001 602.7560000000001 L 588.5450000000001 599.2020000000001 L 589.076 598.6710000000002 L 598.144 598.6710000000002 L 598.218 598.5970000000002 L 606.6809999999999 590.1340000000002 L 609.246 590.1340000000002 L 616.4259999999999 597.3150000000003 L 616.4259999999999 586.58 Z M 600.711 601.234 L 604.409 604.933 L 605.692 606.215 L 603.127 608.7800000000001 L 601.8449999999999 607.4970000000001 L 596.6449999999999 602.2980000000001 L 590.5789999999998 602.2980000000001 L 585.0649999999998 607.8120000000001 L 584.9919999999998 607.8850000000001 L 584.9919999999998 610.7610000000001 C 584.9919999999998 611.4022934724321 585.2467528400034 612.0173212338218 585.7002158030908 612.4707841969091 C 586.1536787661781 612.9242471599965 586.7687065275678 613.1790000000001 587.4099999999999 613.1790000000001 L 614.0079999999998 613.1790000000001 C 614.6492934724319 613.1790000000001 615.2643212338215 612.9242471599965 615.7177841969088 612.4707841969091 C 616.1712471599963 612.0173212338218 616.4259999999998 611.4022934724321 616.4259999999998 610.7610000000001 L 616.4259999999998 602.4440000000001 L 607.9629999999999 593.9810000000001 L 600.7819999999998 601.1620000000001 L 600.7109999999998 601.2340000000002 Z M 581.364 606.676 L 581.364 610.7610000000001 C 581.3639999780609 612.3644069571463 582.0010193474058 613.90212792656 583.134893046495 615.0358140845148 C 584.2687667455843 616.1695002424696 585.8065930647931 616.8062652451542 587.4100000000001 616.806 L 614.008 616.806 C 615.6113149962093 616.8062652957772 617.1490385465139 616.1694683899498 618.2827534682318 615.0357534682319 C 619.4164683899497 613.902038546514 620.0532652957771 612.3643149962094 620.053 610.7610000000001 L 620.053 603.6530000000001 L 621.409 602.2980000000001 L 620.127 601.0150000000001 L 620.053 600.9420000000001 L 620.053 582.9530000000001 L 581.364 582.9530000000001 L 581.364 606.383 L 581.2180000000001 606.529 L 581.364 606.676 Z" stroke-linecap="round" />
</g>
		<g transform="matrix(1 0 0 1 0.71 -0.12)"  >
<path style="stroke: rgb(201,201,201); stroke-width: 2.418; stroke-dasharray: none; stroke-linecap: butt; stroke-dashoffset: 0; stroke-linejoin: miter; stroke-miterlimit: 4; fill: none; fill-rule: nonzero; opacity: 0.5;" vector-effect="non-scaling-stroke"  transform=" translate(-600.71, -599.88)" d="M 600.709 656.704 C 569.3249999999999 656.704 543.8839999999999 631.2629999999999 543.8839999999999 599.88 C 543.8839999999999 568.496 569.3249999999999 543.055 600.709 543.055 C 632.092 543.055 657.5329999999999 568.496 657.5329999999999 599.88 C 657.5329999999999 631.263 632.0919999999999 656.704 600.709 656.704 Z" stroke-linecap="round" />
</g>
</g>
</g>
</svg>